<svg width="569" height="120" viewBox="0 0 569 120" fill="none" xmlns="http://www.w3.org/2000/svg">
<circle cx="211" cy="70" r="50" fill="#6097FF"/>
<circle cx="211" cy="70" r="35" fill="white"/>
<circle cx="388" cy="70" r="50" fill="#6097FF"/>
<circle cx="388" cy="70" r="35" fill="white"/>
<rect x="292" y="20" width="15" height="100" fill="#6097FF"/>
<rect x="338" y="70" width="100" height="50" fill="white"/>
<rect x="338" y="70" width="15" height="50" fill="#6097FF"/>
<rect x="423" y="70" width="15" height="50" fill="#6097FF"/>
<circle cx="519" cy="70" r="50" fill="#6097FF"/>
<circle cx="519" cy="70" r="35" fill="white"/>
<rect x="469" y="70" width="100" height="50" fill="white"/>
<rect x="469" y="70" width="15" height="50" fill="#6097FF"/>
<rect x="554" y="70" width="15" height="50" fill="#6097FF"/>
<rect x="484" y="70" width="70" height="15" fill="#6097FF"/>
<rect x="484" y="70" width="70" height="15" fill="#6097FF"/>
<path fill-rule="evenodd" clip-rule="evenodd" d="M60 120H120V60C120 26.8629 93.1371 0 60 0H0V60H30C13.4315 60 0 73.4315 0 90C0 106.569 13.4315 120 30 120C46.5685 120 60 106.569 60 90V120ZM60 60V90C60 73.4315 46.5685 60 30 60H60Z" fill="#6097FF"/>
</svg>
